<svg height="50pt" viewBox="-100 -400 1200 1200" width="50pt" xmlns="http://www.w3.org/2000/svg"><path d="m230.625 16c-75.121094 0-136 60.878906-136 136 0 37.601562 15.199219 71.519531 39.839844 96.160156s58.558594 39.839844 96.160156 39.839844c75.117188 0 136-60.878906 136-136s-60.882812-136-136-136zm0 0" fill="#cce4ff"/><g fill="#007aff">
<path d="m230.625 0c-83.816406 0-152 68.183594-152 152 0 36.152344 12.734375 69.359375 33.894531 95.480469l-112.519531 112.519531 22.625 22.625 112.519531-112.519531c26.121094 21.160156 59.328125 33.894531 95.480469 33.894531 83.816406 0 152-68.183594 152-152s-68.183594-152-152-152zm0 272c-31.730469 0-60.546875-12.464844-82.023438-32.648438l-5.328124-5.328124c-20.183594-21.480469-32.648438-50.296876-32.648438-82.023438 0-66.167969 53.832031-120 120-120s120 53.832031 120 120-53.832031 120-120 120zm0 0"/></g></svg>